<svg width="177" height="54" fill="none" xmlns="http://www.w3.org/2000/svg"><path d="M.6 40v-3.432c.797-.035 1.456-.139 1.976-.312.555-.173.97-.572 1.248-1.196.312-.624.468-1.63.468-3.016V12.128c0-.936.017-1.837.052-2.704.07-.867.121-1.525.156-1.976-.555.035-1.248.07-2.08.104-.832 0-1.439.017-1.82.052V3.6h26l.312 10.088H23.48c0-1.907-.33-3.345-.988-4.316-.659-.97-1.473-1.612-2.444-1.924-.97-.347-1.924-.503-2.86-.468l-1.872.052c-.728 0-1.352.104-1.872.312-.52.173-.919.59-1.196 1.248-.277.624-.416 1.612-.416 2.964v9.048h5.356l-.208-4.472h4.004v12.636h-3.432c0-1.456-.225-2.513-.676-3.172-.45-.659-1.075-1.057-1.872-1.196-.763-.173-1.612-.243-2.548-.208h-.624v7.28c0 .936-.017 1.837-.052 2.704-.035.867-.087 1.525-.156 1.976.381-.035.884-.052 1.508-.052.624-.035 1.23-.052 1.82-.052a27.629 27.629 0 011.3-.052V40H.6zm28.477-3.38c1.422 0 2.288-.416 2.6-1.248.312-.867.468-1.993.468-3.38v-8.736c0-.624.018-1.317.052-2.08.035-.797.087-1.577.156-2.34-.554.035-1.213.07-1.976.104-.728 0-1.282.017-1.664.052V15.04h2.08c1.352 0 2.583-.173 3.692-.52 1.144-.347 1.89-.693 2.236-1.04h2.548c.07.347.122 1.005.156 1.976.035.936.052 1.768.052 2.496 1.387-1.733 2.687-2.964 3.9-3.692 1.214-.728 2.444-1.092 3.692-1.092 1.214 0 2.271.347 3.172 1.04.902.659 1.352 1.75 1.352 3.276 0 .52-.121 1.075-.364 1.664a3.43 3.43 0 01-1.144 1.404c-.52.381-1.23.572-2.132.572-.693 0-1.404-.208-2.132-.624-.728-.416-1.144-1.213-1.248-2.392-.693 0-1.386.295-2.08.884a9.576 9.576 0 00-1.872 2.028c-.52.763-.884 1.473-1.092 2.132v8.476c0 .485-.017 1.179-.052 2.08a53.632 53.632 0 01-.156 2.496c.555-.07 1.162-.104 1.82-.104a34.13 34.13 0 011.56-.052V40H29.077v-3.38zm24.985 0c1.421 0 2.288-.416 2.6-1.248.312-.867.468-1.993.468-3.38V23.36c0-.624.017-1.335.052-2.132.034-.832.086-1.63.156-2.392-.555.035-1.214.07-1.976.104-.728 0-1.283.017-1.664.052V15.04c2.392 0 4.229-.173 5.512-.52 1.317-.347 2.149-.693 2.496-1.04h2.808v18.148c0 .485-.018 1.179-.052 2.08a53.632 53.632 0 01-.156 2.496c.554-.07 1.161-.104 1.82-.104a34.13 34.13 0 011.56-.052V40H54.062v-3.38zm6.5-27.248c-1.179 0-2.15-.416-2.912-1.248-.763-.832-1.144-1.837-1.144-3.016s.398-2.184 1.196-3.016C58.499 1.26 59.435.844 60.51.844c1.109 0 2.028.416 2.756 1.248.762.832 1.144 1.837 1.144 3.016s-.347 2.184-1.04 3.016c-.694.832-1.63 1.248-2.808 1.248zm22.471 31.46c-1.49 0-2.946-.19-4.368-.572-1.42-.381-2.53-.867-3.328-1.456l.104 1.56H71.49l-.208-8.944h3.38c.174 1.595 1.006 2.947 2.496 4.056 1.491 1.075 3.346 1.612 5.564 1.612.867 0 1.682-.208 2.444-.624.763-.416 1.144-1.075 1.144-1.976-.034-1.005-.572-1.75-1.612-2.236-1.005-.485-2.478-1.11-4.42-1.872-1.074-.416-2.166-.85-3.276-1.3a17.904 17.904 0 01-3.016-1.612 7.978 7.978 0 01-2.184-2.392c-.554-.97-.832-2.15-.832-3.536 0-1.352.33-2.67.988-3.952.694-1.283 1.768-2.34 3.224-3.172 1.456-.832 3.311-1.248 5.564-1.248.936 0 1.994.156 3.172.468 1.214.277 2.236.71 3.068 1.3v-1.508h3.952v9.204h-3.38c-.312-1.803-1.109-3.224-2.392-4.264-1.282-1.04-2.86-1.56-4.732-1.56a4.74 4.74 0 00-2.392.624c-.693.416-1.04 1.127-1.04 2.132 0 .797.278 1.439.832 1.924.555.45 1.318.832 2.288 1.144.971.312 2.046.676 3.224 1.092 1.768.59 3.328 1.283 4.68 2.08 1.387.797 2.48 1.768 3.276 2.912.798 1.11 1.196 2.479 1.196 4.108 0 1.803-.45 3.293-1.352 4.472-.9 1.179-2.08 2.063-3.536 2.652-1.42.59-2.946.884-4.576.884zM95.792 53.26v-3.38c1.456 0 2.34-.433 2.652-1.3.312-.832.468-1.941.468-3.328V23.256c0-.624.017-1.317.052-2.08.034-.797.086-1.577.156-2.34-.555.035-1.214.07-1.976.104-.763 0-1.335.017-1.716.052V15.04c2.426 0 4.281-.173 5.564-.52 1.282-.347 2.097-.693 2.444-1.04h2.548c.069.347.121.78.156 1.3.034.485.069.884.104 1.196 1.213-1.04 2.409-1.768 3.588-2.184 1.213-.416 2.357-.624 3.432-.624 2.08 0 3.9.537 5.46 1.612 1.594 1.075 2.825 2.6 3.692 4.576.901 1.976 1.352 4.299 1.352 6.968 0 2.773-.538 5.27-1.612 7.488-1.075 2.184-2.583 3.9-4.524 5.148-1.907 1.248-4.16 1.872-6.76 1.872-.936 0-1.786-.104-2.548-.312a18.166 18.166 0 01-2.08-.624v4.992c0 .485-.018 1.161-.052 2.028 0 .901-.035 1.75-.104 2.548.554-.07 1.161-.121 1.82-.156h1.508v3.952H95.792zm14.248-16.328c1.594-.035 2.825-.503 3.692-1.404.901-.936 1.525-2.15 1.872-3.64.346-1.49.52-3.085.52-4.784 0-1.595-.191-3.103-.572-4.524-.382-1.421-.988-2.565-1.82-3.432-.832-.901-1.924-1.335-3.276-1.3a5.164 5.164 0 00-2.392.676 5.066 5.066 0 00-1.82 1.612v15.86c.381.243.918.468 1.612.676a6.514 6.514 0 002.184.26zm29.826 3.9c-2.531 0-4.767-.555-6.708-1.664-1.941-1.144-3.449-2.739-4.524-4.784-1.075-2.08-1.612-4.524-1.612-7.332 0-2.427.537-4.697 1.612-6.812 1.075-2.115 2.583-3.813 4.524-5.096 1.976-1.317 4.264-1.976 6.864-1.976 1.456 0 2.877.208 4.264.624a9.41 9.41 0 013.744 2.028c1.144.97 2.045 2.288 2.704 3.952.693 1.664 1.023 3.744.988 6.24l-17.056.312c0 1.872.225 3.553.676 5.044.485 1.49 1.265 2.67 2.34 3.536 1.075.867 2.513 1.3 4.316 1.3 1.04 0 2.271-.277 3.692-.832 1.456-.59 2.773-1.612 3.952-3.068l2.34 2.184c-1.248 1.768-2.583 3.12-4.004 4.056-1.421.901-2.843 1.508-4.264 1.82-1.387.312-2.669.468-3.848.468zm-4.888-18.148h9.568c-.035-2.15-.451-3.657-1.248-4.524-.797-.901-1.803-1.352-3.016-1.352-1.525 0-2.721.555-3.588 1.664-.867 1.075-1.439 2.479-1.716 4.212zm32.505 18.148a16.78 16.78 0 01-4.368-.572c-1.422-.381-2.531-.867-3.328-1.456l.104 1.56h-3.952l-.208-8.944h3.38c.173 1.595 1.005 2.947 2.496 4.056 1.49 1.075 3.345 1.612 5.564 1.612a5.03 5.03 0 002.444-.624c.762-.416 1.144-1.075 1.144-1.976-.035-1.005-.572-1.75-1.612-2.236-1.006-.485-2.479-1.11-4.42-1.872a210.04 210.04 0 01-3.276-1.3 17.892 17.892 0 01-3.016-1.612 7.96 7.96 0 01-2.184-2.392c-.555-.97-.832-2.15-.832-3.536 0-1.352.329-2.67.988-3.952.693-1.283 1.768-2.34 3.224-3.172 1.456-.832 3.31-1.248 5.564-1.248.936 0 1.993.156 3.172.468 1.213.277 2.236.71 3.068 1.3v-1.508h3.952v9.204h-3.38c-.312-1.803-1.11-3.224-2.392-4.264-1.283-1.04-2.86-1.56-4.732-1.56-.867 0-1.664.208-2.392.624-.694.416-1.04 1.127-1.04 2.132 0 .797.277 1.439.832 1.924.554.45 1.317.832 2.288 1.144.97.312 2.045.676 3.224 1.092 1.768.59 3.328 1.283 4.68 2.08 1.386.797 2.478 1.768 3.276 2.912.797 1.11 1.196 2.479 1.196 4.108 0 1.803-.451 3.293-1.352 4.472-.902 1.179-2.08 2.063-3.536 2.652-1.422.59-2.947.884-4.576.884z" fill="#fff"/></svg>